<mxfile host="app.diagrams.net" agent="Mozilla/5.0 (Windows NT 10.0; Win64; x64) AppleWebKit/537.36 (KHTML, like Gecko) Chrome/140.0.0.0 Safari/537.36" version="28.2.2">
  <diagram name="PÃ¡gina-1" id="s7RQSI5pej8gOF6ToSVY">
    <mxGraphModel dx="1042" dy="562" grid="1" gridSize="10" guides="1" tooltips="1" connect="1" arrows="1" fold="1" page="1" pageScale="1" pageWidth="827" pageHeight="1169" math="0" shadow="0">
      <root>
        <mxCell id="0" />
        <mxCell id="1" parent="0" />
        <mxCell id="GrAAA8tOvyv97UU36GVz-1" value="obterDadosDoSite()" style="edgeStyle=orthogonalEdgeStyle;rounded=0;orthogonalLoop=1;jettySize=auto;html=1;curved=0;" parent="1" edge="1">
          <mxGeometry x="-0.0134" y="15" relative="1" as="geometry">
            <mxPoint x="169.5" y="213" as="sourcePoint" />
            <mxPoint x="393.5" y="213" as="targetPoint" />
            <mxPoint x="1" as="offset" />
          </mxGeometry>
        </mxCell>
        <mxCell id="GrAAA8tOvyv97UU36GVz-2" value="&lt;div&gt;&lt;br&gt;&lt;/div&gt;&lt;div&gt;&lt;br&gt;&lt;/div&gt;&lt;div&gt;&lt;br&gt;&lt;/div&gt;&lt;div&gt;&lt;br&gt;&lt;/div&gt;Joao: Administrador" style="shape=umlLifeline;perimeter=lifelinePerimeter;whiteSpace=wrap;html=1;container=1;dropTarget=0;collapsible=0;recursiveResize=0;outlineConnect=0;portConstraint=eastwest;newEdgeStyle={&quot;curved&quot;:0,&quot;rounded&quot;:0};participant=umlActor;" parent="1" vertex="1">
          <mxGeometry x="160" y="126" width="20" height="300" as="geometry" />
        </mxCell>
        <mxCell id="GrAAA8tOvyv97UU36GVz-3" value="consultaCandidato()" style="edgeStyle=orthogonalEdgeStyle;rounded=0;orthogonalLoop=1;jettySize=auto;html=1;curved=0;" parent="1" edge="1">
          <mxGeometry x="-0.0139" y="19" relative="1" as="geometry">
            <mxPoint x="393.5" y="249" as="sourcePoint" />
            <mxPoint x="609.5" y="249" as="targetPoint" />
            <mxPoint x="1" as="offset" />
          </mxGeometry>
        </mxCell>
        <mxCell id="GrAAA8tOvyv97UU36GVz-4" value="Retorna lista de candidatos" style="edgeStyle=orthogonalEdgeStyle;rounded=0;orthogonalLoop=1;jettySize=auto;html=1;curved=0;dashed=1;" parent="1" edge="1">
          <mxGeometry relative="1" as="geometry">
            <mxPoint x="393.5" y="326" as="sourcePoint" />
            <mxPoint x="169.5" y="326" as="targetPoint" />
          </mxGeometry>
        </mxCell>
        <mxCell id="GrAAA8tOvyv97UU36GVz-5" value="gerenciameto: GerenciadorDoSistema" style="shape=umlLifeline;perimeter=lifelinePerimeter;whiteSpace=wrap;html=1;container=1;dropTarget=0;collapsible=0;recursiveResize=0;outlineConnect=0;portConstraint=eastwest;newEdgeStyle={&quot;curved&quot;:0,&quot;rounded&quot;:0};" parent="1" vertex="1">
          <mxGeometry x="344" y="126" width="100" height="300" as="geometry" />
        </mxCell>
        <mxCell id="GrAAA8tOvyv97UU36GVz-10" value="" style="html=1;points=[[0,0,0,0,5],[0,1,0,0,-5],[1,0,0,0,5],[1,1,0,0,-5]];perimeter=orthogonalPerimeter;outlineConnect=0;targetShapes=umlLifeline;portConstraint=eastwest;newEdgeStyle={&quot;curved&quot;:0,&quot;rounded&quot;:0};" parent="GrAAA8tOvyv97UU36GVz-5" vertex="1">
          <mxGeometry x="45" y="125" width="10" height="47" as="geometry" />
        </mxCell>
        <mxCell id="GrAAA8tOvyv97UU36GVz-6" value="ueg: UEg" style="shape=umlLifeline;perimeter=lifelinePerimeter;whiteSpace=wrap;html=1;container=1;dropTarget=0;collapsible=0;recursiveResize=0;outlineConnect=0;portConstraint=eastwest;newEdgeStyle={&quot;curved&quot;:0,&quot;rounded&quot;:0};" parent="1" vertex="1">
          <mxGeometry x="560" y="126" width="100" height="300" as="geometry" />
        </mxCell>
        <mxCell id="sUpWivK82nEkpIm1E1B8-1" value="" style="html=1;points=[[0,0,0,0,5],[0,1,0,0,-5],[1,0,0,0,5],[1,1,0,0,-5]];perimeter=orthogonalPerimeter;outlineConnect=0;targetShapes=umlLifeline;portConstraint=eastwest;newEdgeStyle={&quot;curved&quot;:0,&quot;rounded&quot;:0};" vertex="1" parent="GrAAA8tOvyv97UU36GVz-6">
          <mxGeometry x="45" y="127.5" width="10" height="45" as="geometry" />
        </mxCell>
        <mxCell id="GrAAA8tOvyv97UU36GVz-7" value="Envia lista de candidatos" style="edgeStyle=orthogonalEdgeStyle;rounded=0;orthogonalLoop=1;jettySize=auto;html=1;curved=0;dashed=1;" parent="1" edge="1">
          <mxGeometry relative="1" as="geometry">
            <mxPoint x="609.5" y="302" as="sourcePoint" />
            <mxPoint x="393.5" y="302" as="targetPoint" />
          </mxGeometry>
        </mxCell>
        <mxCell id="GrAAA8tOvyv97UU36GVz-9" value="" style="html=1;points=[[0,0,0,0,5],[0,1,0,0,-5],[1,0,0,0,5],[1,1,0,0,-5]];perimeter=orthogonalPerimeter;outlineConnect=0;targetShapes=umlLifeline;portConstraint=eastwest;newEdgeStyle={&quot;curved&quot;:0,&quot;rounded&quot;:0};" parent="1" vertex="1">
          <mxGeometry x="165" y="216" width="10" height="106" as="geometry" />
        </mxCell>
      </root>
    </mxGraphModel>
  </diagram>
</mxfile>
